<?xml version="1.0" encoding="iso-8859-1"?>
<!-- Generator: Adobe Illustrator 19.0.0, SVG Export Plug-In . SVG Version: 6.00 Build 0)  -->
<svg version="1.1" id="Layer_1" xmlns="http://www.w3.org/2000/svg" xmlns:xlink="http://www.w3.org/1999/xlink" x="0px" y="0px"
	 viewBox="0 0 512 512" style="enable-background:new 0 0 512 512;" xml:space="preserve">
<path style="fill:#6B8F9C;" d="M438.858,357.715H73.142c-8.836,0-16-7.164-16-16V113.143c0-21.426,17.431-38.858,38.858-38.858h320
	c21.426,0,38.858,17.431,38.858,38.858v228.572C454.858,350.552,447.694,357.715,438.858,357.715z"/>
<path style="fill:#325763;" d="M416,74.286H256v283.429h182.858c8.836,0,16-7.164,16-16V113.143
	C454.858,91.717,437.426,74.286,416,74.286z"/>
<path style="fill:#FAE8AC;" d="M393.142,357.715H118.858c-8.836,0-16-7.164-16-16V135.999c0-8.836,7.164-16,16-16h274.286
	c8.836,0,16,7.164,16,16v205.715C409.142,350.552,401.979,357.715,393.142,357.715z"/>
<path style="fill:#F6D86E;" d="M393.142,119.999H256v237.715h137.142c8.836,0,16-7.164,16-16V135.999
	C409.142,127.163,401.979,119.999,393.142,119.999z"/>
<path style="fill:#325763;" d="M461.714,437.715H50.286C22.558,437.715,0,415.157,0,387.429v-45.713c0-8.836,7.164-16,16-16h480
	c8.836,0,16,7.164,16,16v45.713C512,415.157,489.442,437.715,461.714,437.715z"/>
<path style="fill:#4AD0FF;" d="M295.1,303.948H216.9c-12.31,0-20.001-13.358-13.856-24l28.27-48.965
	c4.144-7.179,13.085-10.005,20.603-6.509c2.545,1.183,5.621,1.183,8.165,0c7.518-3.493,16.459-0.67,20.603,6.509l28.27,48.965
	C315.111,290.61,307.389,303.948,295.1,303.948z"/>
<path style="fill:#16A5D9;" d="M308.956,279.948l-28.27-48.965c-4.144-7.178-13.085-10.002-20.603-6.509
	c-1.273,0.592-2.677,0.887-4.083,0.887v78.587h39.1C307.389,303.948,315.111,290.61,308.956,279.948z"/>
<path style="fill:#99E5FF;" d="M256,257.366c-23.188,0-41.801-18.891-41.801-41.801c0-23.049,18.752-41.801,41.801-41.801
	c23.049,0,41.801,18.751,41.801,41.801C297.801,238.324,279.329,257.366,256,257.366z"/>
<path style="fill:#4AD0FF;" d="M256,173.766v83.6c23.329,0,41.801-19.043,41.801-41.801
	C297.801,192.517,279.049,173.766,256,173.766z"/>
<path style="fill:#072F3D;" d="M496,325.715H256v112h205.714c27.728,0,50.286-22.558,50.286-50.287v-45.713
	C512,332.878,504.836,325.715,496,325.715z"/>
<g>
</g>
<g>
</g>
<g>
</g>
<g>
</g>
<g>
</g>
<g>
</g>
<g>
</g>
<g>
</g>
<g>
</g>
<g>
</g>
<g>
</g>
<g>
</g>
<g>
</g>
<g>
</g>
<g>
</g>
</svg>
